<svg width="36" height="44" viewBox="0 0 36 44" fill="none" xmlns="http://www.w3.org/2000/svg">
<path d="M12.7565 34.4348H15.4174L15.1826 33.4956C15.1044 33.1826 14.7913 32.8695 14.4 32.8695H13.3044C12.0522 32.8695 10.8783 32.2435 10.0957 31.2261L7.66959 27.8608L4.69568 29.113L11.4261 33.9652C11.7392 34.2782 12.287 34.4348 12.7565 34.4348Z" fill="#319F1C"/>
<path d="M24.2608 10.1739H10.1738C9.15646 10.1739 8.29559 10.8 7.98254 11.7391H26.4521C26.1391 10.8 25.2782 10.1739 24.2608 10.1739Z" fill="#319F1C"/>
<path d="M24.2608 8.6087C25.0434 8.6087 25.826 8.84348 26.4521 9.31304C25.826 6.02609 23.5565 3.2087 20.3478 2.11304V7.04348H18.7825V0.782609C18.7825 0.313043 18.4695 0 17.9999 0H16.4347C15.9652 0 15.6521 0.313043 15.6521 0.782609V7.04348H14.0869V2.11304C10.8782 3.2087 8.53037 5.94782 7.98254 9.31304C8.60863 8.84348 9.39124 8.6087 10.1738 8.6087H24.2608Z" fill="#319F1C"/>
<path d="M21.0522 32.8696H19.9566C19.5653 32.8696 19.2522 33.1043 19.174 33.4956L19.0175 34.4348H21.6783C22.1479 34.4348 22.6957 34.2783 23.087 33.9652L28.174 30.2087V28.2522L26.7653 27.7043L24.2609 31.2261C23.5566 32.2435 22.3827 32.8696 21.0522 32.8696Z" fill="#319F1C"/>
<path d="M32.8696 26.2956C32.8696 25.9826 32.2435 25.513 31.3044 25.513C30.3652 25.513 29.7391 25.9826 29.7391 26.2956V33.4956L32.8696 29.113V26.2956Z" fill="#319F1C"/>
<path d="M9.39127 18.4695V18.9391C9.39127 20.9739 10.4869 22.7739 12.2087 23.713L14.5565 24.9652C16.2 25.8261 18.1565 25.8261 19.8 24.9652L22.1478 23.713C23.8695 22.7739 24.9652 20.8956 24.9652 18.9391V18.4695L26.3739 17.6087C26.4521 17.5304 26.5304 17.4521 26.5304 17.2956V15.1043C26.5304 14.9478 26.3739 14.7913 26.1391 14.7913C26.0608 14.7913 25.9826 14.7913 25.9826 14.8695L25.0434 15.9652V13.3043H9.39127V15.9652L8.37388 14.9478C8.21735 14.7913 7.98257 14.8695 7.90431 14.9478C7.82605 15.0261 7.82605 15.1043 7.82605 15.1043V17.2956C7.82605 17.3739 7.90431 17.5304 7.98257 17.6087L9.39127 18.4695Z" fill="#319F1C"/>
<path d="M32.8696 40.6957V37.0174L30.4435 40.6957H32.8696Z" fill="#319F1C"/>
<path d="M34.4348 29.6609V29.7391H34.3565L24.2609 43.8261H36V27.4695L34.4348 29.6609ZM34.4348 42.2609H27.4696L34.4348 31.8522V42.2609Z" fill="#319F1C"/>
<path d="M28.1739 32.1652L23.9478 35.2174C23.2435 35.687 22.4609 36 21.6783 36H18V43.8261H22.3043L28.1739 35.687V32.1652Z" fill="#319F1C"/>
<path d="M7.04346 42.2609H12.5217V43.8261H7.04346V42.2609Z" fill="#319F1C"/>
<path d="M7.04346 39.1304H12.5217V40.6956H7.04346V39.1304Z" fill="#319F1C"/>
<path d="M20.0349 31.3044H21.1305C21.9131 31.3044 22.6175 30.9131 23.0088 30.287L25.2783 27.1565L21.7566 25.8261L20.5827 26.4522C18.4696 27.6261 15.9653 27.6261 13.8523 26.4522L12.6783 25.8261L9.23486 27.2348L11.4262 30.287C11.8957 30.9131 12.6001 31.3044 13.3044 31.3044H14.4001C15.4957 31.3044 16.4349 32.0087 16.6696 33.1044L17.2175 35.1392L17.7653 33.1044C18.0001 32.0087 18.9392 31.3044 20.0349 31.3044Z" fill="#319F1C"/>
<path d="M10.487 35.2174L3.13043 29.8957C1.17391 31.2261 0 33.4174 0 35.7653V43.8261H5.47826V37.5653H6.8087L6.26087 35.374L7.74783 34.9826L8.37391 37.487H14.087V43.7479H16.4348V36H12.7565C11.8957 36 11.113 35.7653 10.487 35.2174Z" fill="#319F1C"/>
</svg>
